HIERARCHY
ROOT Hips
{
	OFFSET 0.000000 0.000000 0.000000
	CHANNELS 6 Xposition Yposition Zposition Xrotation Yrotation Zrotation
	JOINT LeftUpLeg_virtual
	{
		OFFSET 0.000000 0.000000 0.000000
		CHANNELS 3 Xrotation Yrotation Zrotation
		JOINT LeftUpLeg
		{
			OFFSET 10.205400 -3.823500 0.155100
			CHANNELS 3 Xrotation Yrotation Zrotation
			JOINT LeftLeg
			{
				OFFSET 0.708757 -12.982077 0.567790
				CHANNELS 3 Xrotation Yrotation Zrotation
				JOINT LeftFoot
				{
					OFFSET -0.708756 -10.717838 -2.184338
					CHANNELS 3 Xrotation Yrotation Zrotation
					JOINT LeftToeBase
					{
						OFFSET 0.108149 -7.191104 7.560241
						CHANNELS 3 Xrotation Yrotation Zrotation
						JOINT LeftToe_End
						{
							OFFSET 0.070230 0.081724 4.490308
							CHANNELS 3 Xrotation Yrotation Zrotation
							End Site
							{
								OFFSET 0 0 0
							}
						}
					}
				}
			}
		}
	}
	JOINT RightUpLeg_virtual
	{
		OFFSET 0.000000 0.000000 0.000000
		CHANNELS 3 Xrotation Yrotation Zrotation
		JOINT RightUpLeg
		{
			OFFSET -10.205400 -3.823500 0.005500
			CHANNELS 3 Xrotation Yrotation Zrotation
			JOINT RightLeg
			{
				OFFSET -0.708756 -12.982134 0.610632
				CHANNELS 3 Xrotation Yrotation Zrotation
				JOINT RightFoot
				{
					OFFSET 0.708754 -10.717769 -1.945823
					CHANNELS 3 Xrotation Yrotation Zrotation
					JOINT RightToeBase
					{
						OFFSET -0.108140 -7.191069 7.372968
						CHANNELS 3 Xrotation Yrotation Zrotation
						JOINT RightToe_End
						{
							OFFSET -0.070227 0.081735 4.479403
							CHANNELS 3 Xrotation Yrotation Zrotation
							End Site
							{
								OFFSET 0 0 0
							}
						}
					}
				}
			}
		}
	}
	JOINT Spine_virtual
	{
		OFFSET 0.000000 0.000000 0.000000
		CHANNELS 3 Xrotation Yrotation Zrotation
		JOINT Spine
		{
			OFFSET 0.000000 6.876099 0.125700
			CHANNELS 3 Xrotation Yrotation Zrotation
			JOINT Spine1
			{
				OFFSET 0.000000 5.730043 0.104720
				CHANNELS 3 Xrotation Yrotation Zrotation
				JOINT Spine1_split
				{
					OFFSET 0.000000 5.730043 0.104720
					CHANNELS 3 Xrotation Yrotation Zrotation
					JOINT Spine2
					{
						OFFSET 0.000000 5.730043 0.104720
						CHANNELS 3 Xrotation Yrotation Zrotation
						JOINT Neck_virtual
						{
							OFFSET 0.000000 0.000000 0.000000
							CHANNELS 3 Xrotation Yrotation Zrotation
							JOINT Neck
							{
								OFFSET 0.000000 10.314075 0.188496
								CHANNELS 3 Xrotation Yrotation Zrotation
								JOINT Head
								{
									OFFSET 0.000000 7.643700 -2.377400
									CHANNELS 3 Xrotation Yrotation Zrotation
									JOINT HeadTop_End
									{
										OFFSET 0.000000 43.788605 -13.619600
										CHANNELS 3 Xrotation Yrotation Zrotation
										End Site
										{
											OFFSET 0 0 0
										}
									}
								}
							}
						}
						JOINT LeftShoulder_virtual
						{
							OFFSET 0.000000 0.000000 0.000000
							CHANNELS 3 Xrotation Yrotation Zrotation
							JOINT LeftShoulder
							{
								OFFSET 2.196100 4.412489 0.087492
								CHANNELS 3 Xrotation Yrotation Zrotation
								JOINT LeftShoulder_split
								{
									OFFSET 2.196100 4.412489 0.087492
									CHANNELS 3 Xrotation Yrotation Zrotation
									JOINT LeftArm
									{
										OFFSET 8.771219 -2.981674 -0.026999
										CHANNELS 3 Xrotation Yrotation Zrotation
										JOINT LeftForeArm
										{
											OFFSET 8.512804 0.000000 -0.000000
											CHANNELS 3 Xrotation Yrotation Zrotation
											JOINT LeftHand
											{
												OFFSET 18.484802 0.000000 -0.000000
												CHANNELS 3 Xrotation Yrotation Zrotation
												End Site
												{
													OFFSET 0 0 0
												}
											}
										}
									}
								}
							}
						}
						JOINT RightShoulder_virtual
						{
							OFFSET 0.000000 0.000000 0.000000
							CHANNELS 3 Xrotation Yrotation Zrotation
							JOINT RightShoulder
							{
								OFFSET -2.196100 4.412496 0.070690
								CHANNELS 3 Xrotation Yrotation Zrotation
								JOINT RightShoulder_split
								{
									OFFSET -2.196100 4.412496 0.070690
									CHANNELS 3 Xrotation Yrotation Zrotation
									JOINT RightArm
									{
										OFFSET -8.771282 -2.981682 -0.094208
										CHANNELS 3 Xrotation Yrotation Zrotation
										JOINT RightForeArm
										{
											OFFSET -8.494598 0.000000 0.000000
											CHANNELS 3 Xrotation Yrotation Zrotation
											JOINT RightHand
											{
												OFFSET -18.483803 0.000000 0.000001
												CHANNELS 3 Xrotation Yrotation Zrotation
												End Site
												{
													OFFSET 0 0 0
												}
											}
										}
									}
								}
							}
						}
					}
				}
			}
		}
	}
}
MOTION
Frames: 5
Frame Time: 0.03333333
3.626525 32.619068 2.964302 0.000000 0.000000 0.000000 -4.659069 11.437269 7.322932 -9.200382 -3.767942 -3.163352 24.415969 4.013217 -6.919365 -12.447367 11.518935 -0.906006 -0.840005 0.341053 0.259115 0.000000 0.000000 0.000000 -4.175716 11.627572 6.849406 19.075267 -13.805260 -22.111168 17.952124 -10.304137 1.739993 -19.696951 -32.835762 24.527827 -4.655173 0.710960 -0.482145 0.000000 0.000000 0.000000 -0.098941 11.177508 5.944755 3.940025 3.350326 13.162788 7.461014 6.016298 1.255234 0.689376 -0.996092 0.363101 0.000000 0.000000 0.000000 1.508880 5.721256 2.796551 -13.056300 -10.723577 -4.224255 5.134379 -10.908260 -4.840088 0.000000 0.000000 0.000000 0.803905 5.760176 1.908787 0.033176 1.126304 18.898618 1.037181 0.578337 -2.985991 -37.830201 2.071091 -9.679613 -22.527629 -30.226124 8.720872 0.000000 0.000000 0.000000 -0.780132 5.166070 2.335995 6.351098 1.589297 -1.168764 0.655109 2.991687 1.771580 37.898940 -48.978050 68.059283 -13.870006 30.543506 40.012583 0.000000 0.000000 0.000000 
3.332815 32.482609 3.239017 0.000000 0.000000 0.000000 -3.484796 21.835128 5.977598 -12.776035 -8.395190 -2.921451 24.730320 1.979325 -7.472624 -11.130323 10.096121 -2.280468 -0.903512 0.665696 -0.087656 0.000000 0.000000 0.000000 -3.387441 21.846230 5.585484 21.101017 -19.805250 -18.781716 16.833770 -11.192898 2.286906 -21.160020 -32.348568 25.972657 -5.846296 0.347054 0.003636 0.000000 0.000000 0.000000 1.611606 20.637929 4.646068 1.298988 4.725248 12.120680 6.615253 7.319915 -0.018497 0.736337 -0.946957 0.219571 0.000000 0.000000 0.000000 1.136548 6.939770 1.596165 -16.508134 -16.192656 -1.223791 7.747928 -16.582379 -3.347234 0.000000 0.000000 0.000000 0.249775 7.083392 0.379507 -1.245931 7.326694 17.361301 1.005478 -0.095468 -3.143412 -50.547051 5.946717 -13.243770 -27.444378 -30.510038 6.921627 0.000000 0.000000 0.000000 -0.812366 6.588024 0.951155 6.006280 1.543437 -1.511734 -0.223483 3.448510 2.602011 34.663422 -52.822265 70.993779 -14.131659 35.370435 39.165585 0.000000 0.000000 0.000000 
3.006221 32.381905 3.479557 0.000000 0.000000 0.000000 -1.572316 30.504820 4.501945 -17.612947 -12.741052 -3.390423 26.417556 0.210630 -8.023906 -9.052657 8.846808 -2.660063 -0.815130 0.849565 -0.480882 0.000000 0.000000 0.000000 -1.599768 30.806134 4.241779 21.990890 -25.451170 -15.698987 16.204154 -11.881994 3.144511 -23.488218 -31.590988 25.863133 -6.076611 0.079798 0.364100 0.000000 0.000000 0.000000 3.432555 28.587736 3.295584 -1.011110 6.086016 10.828164 5.998259 8.440093 -1.421732 0.582221 -0.976584 0.128224 0.000000 0.000000 0.000000 1.023467 8.022159 0.144866 -19.963427 -21.153244 2.053965 10.164887 -20.957227 -1.482768 0.000000 0.000000 0.000000 -0.012986 8.201140 -1.214589 -1.974693 11.444834 13.577293 1.749645 -0.972451 -2.296253 -59.308172 7.434118 -18.573120 -31.922723 -29.332295 3.976742 0.000000 0.000000 0.000000 -0.564818 7.799979 -0.514127 5.709310 2.440734 -0.460899 -1.118240 4.173196 3.126567 27.399430 -51.139764 69.094528 -10.755791 38.800058 34.662541 0.000000 0.000000 0.000000 
2.675244 32.318596 3.599649 0.000000 0.000000 0.000000 0.816313 37.424461 2.938513 -22.563926 -16.544153 -4.811674 28.161778 -0.926379 -8.317932 -7.473625 8.061452 -1.575043 -0.441524 0.897347 -0.802841 0.000000 0.000000 0.000000 0.840919 38.177431 2.733967 22.034031 -30.429183 -13.321386 16.108871 -12.399525 4.130270 -26.518679 -30.720408 24.214091 -5.243900 -0.066097 0.524380 0.000000 0.000000 0.000000 5.103537 35.283487 1.921719 -2.936188 7.323822 9.274243 5.721689 9.391958 -2.632781 0.466654 -1.174145 0.018499 0.000000 0.000000 0.000000 1.199425 8.926691 -1.163881 -23.574926 -25.355957 4.755989 12.096046 -24.094078 0.433309 0.000000 0.000000 0.000000 -0.015054 9.158030 -2.460237 -2.207915 13.697354 8.034919 2.361714 -1.950372 -0.906957 -64.311948 8.073971 -24.513952 -35.766200 -27.420112 -0.060846 0.000000 0.000000 0.000000 0.005856 8.813638 -1.737148 5.398890 4.155298 1.612716 -2.090730 4.281510 3.367233 18.213294 -44.271814 63.334036 -4.446037 39.171500 27.283775 0.000000 0.000000 0.000000 
2.382253 32.282127 3.670797 0.000000 0.000000 0.000000 3.333766 42.650829 1.378820 -26.978971 -19.848714 -7.025220 29.337981 -1.913627 -8.258278 -6.515737 7.575202 -0.430810 0.198049 0.844275 -1.193224 0.000000 0.000000 0.000000 3.379768 43.935134 1.182744 21.514268 -34.363785 -11.732757 16.540324 -12.506215 5.017863 -29.247970 -29.721534 22.090189 -4.324156 -0.125136 0.434862 0.000000 0.000000 0.000000 6.689060 40.791696 0.491790 -4.437310 8.367097 7.545057 5.745905 10.146916 -3.451964 0.269281 -1.147828 -0.020262 0.000000 0.000000 0.000000 1.762604 9.665330 -2.073150 -27.323415 -28.499060 6.241439 13.521622 -26.181560 2.130243 0.000000 0.000000 0.000000 0.210131 9.976372 -3.174481 -2.089816 14.457873 1.530030 2.269492 -2.135339 0.372246 -65.624335 9.334973 -29.563261 -39.009331 -26.820720 -5.400437 0.000000 0.000000 0.000000 0.807346 9.578714 -2.543169 5.045674 6.362751 3.929229 -3.174195 3.463221 3.005108 9.496675 -34.286416 55.847578 2.005610 36.342071 19.790960 0.000000 0.000000 0.000000 
